<?xml version="1.0" encoding="UTF-8" standalone="no"?>
<!-- Created with Inkscape (http://www.inkscape.org/) -->

<svg
   width="272.77631mm"
   height="51.011261mm"
   viewBox="0 0 272.77631 51.011261"
   version="1.1"
   id="svg872"
   sodipodi:docname="everydaydev_opensource_black.svg"
   inkscape:version="1.1.2 (0a00cf5339, 2022-02-04)"
   xmlns:inkscape="http://www.inkscape.org/namespaces/inkscape"
   xmlns:sodipodi="http://sodipodi.sourceforge.net/DTD/sodipodi-0.dtd"
   xmlns="http://www.w3.org/2000/svg"
   xmlns:svg="http://www.w3.org/2000/svg">
  <sodipodi:namedview
     id="namedview874"
     pagecolor="#505050"
     bordercolor="#ffffff"
     borderopacity="1"
     inkscape:pageshadow="0"
     inkscape:pageopacity="0"
     inkscape:pagecheckerboard="1"
     inkscape:document-units="mm"
     showgrid="false"
     inkscape:zoom="0.66565317"
     inkscape:cx="440.16916"
     inkscape:cy="75.114192"
     inkscape:window-width="1720"
     inkscape:window-height="1359"
     inkscape:window-x="0"
     inkscape:window-y="44"
     inkscape:window-maximized="0"
     inkscape:current-layer="layer1" />
  <defs
     id="defs869" />
  <g
     inkscape:label="Layer 1"
     inkscape:groupmode="layer"
     id="layer1"
     transform="translate(24.664229,-168.03438)">
    <g
       aria-label="everyday"
       id="text2394-9-8-8-3"
       style="font-weight:bold;font-size:38.865px;line-height:1.25;font-family:'Noto Sans Mono';-inkscape-font-specification:'Noto Sans Mono, Bold';stroke-width:0.971626" />
    <g
       id="g11184">
      <g
         aria-label="open"
         id="text2394-9-8-8-3-4"
         style="font-weight:bold;font-size:38.7946px;line-height:1.25;font-family:'Noto Sans Mono';-inkscape-font-specification:'Noto Sans Mono, Bold';stroke-width:0.969866">
        <path
           d="m -14.577633,203.91756 q -3.181157,0 -5.431244,-1.35781 -2.250087,-1.35781 -3.452719,-3.80187 -1.202633,-2.44406 -1.202633,-5.7416 0,-3.37513 1.202633,-5.85798 1.241427,-2.48286 3.530308,-3.84067 2.288882,-1.35781 5.431245,-1.35781 4.6165573,0 7.2933848,2.90959 2.7156221,2.8708 2.7156221,8.06928 0,3.25875 -1.1638381,5.7416 -1.163838,2.48286 -3.4139249,3.87946 -2.2112919,1.35781 -5.5088339,1.35781 z m 0.07759,-4.53897 q 2.211292,0 3.258746,-1.70696 1.047454,-1.74575 1.047454,-4.73294 0,-2.90959 -1.008659,-4.65535 -1.00866,-1.78455 -3.297541,-1.78455 -2.250087,0 -3.375131,1.74575 -1.086248,1.70697 -1.086248,4.69415 0,2.94839 1.086248,4.69415 1.125044,1.74575 3.375131,1.74575 z"
           id="path11068" />
        <path
           d="m -0.8056089,212.84032 v -30.49256 h 4.2674062 l 0.969865,2.75442 h 0.2715622 q 1.0086596,-1.59058 2.6768275,-2.36647 1.6681679,-0.77589 3.569103,-0.77589 2.754417,0 4.46138,1.47419 1.745757,1.4742 2.560443,3.95705 0.814687,2.44406 0.814687,5.50884 0,5.19847 -2.172498,8.10807 -2.172498,2.90959 -5.857985,2.90959 -1.7457567,0 -3.37513,-0.6983 -1.5905787,-0.6983 -2.6768275,-2.01732 H 4.4316623 q 0.193973,1.31902 0.2327676,2.09491 0.038795,0.77589 0.038795,0.96986 v 8.57361 z m 9.8150342,-13.57811 q 2.0561137,0 2.9871847,-1.51299 0.969865,-1.55178 0.969865,-4.92691 0,-3.02598 -0.969865,-4.61656 -0.931071,-1.59058 -3.0259793,-1.59058 -2.0173193,0 -3.1423628,1.4742 -1.1250434,1.47419 -1.1250434,4.15102 v 0.62071 q 0,3.29754 1.1250434,4.84933 1.1250435,1.55178 3.1811574,1.55178 z"
           id="path11070" />
        <path
           d="m 33.954294,203.91756 q -5.586423,0 -8.651196,-2.8708 -3.025979,-2.8708 -3.025979,-8.22445 0,-3.29754 1.163838,-5.7416 1.163838,-2.44406 3.413925,-3.76308 2.250087,-1.35781 5.431244,-1.35781 4.500174,0 6.944234,2.59924 2.44406,2.59924 2.44406,7.21579 v 2.79321 H 27.747158 q 0.07759,1.55179 0.93107,2.63804 0.892276,1.04745 2.366471,1.59058 1.474195,0.50433 3.219952,0.50433 1.512989,0 3.181157,-0.34916 1.706963,-0.38794 3.607898,-1.08624 v 4.53896 q -1.706962,0.85349 -3.530309,1.16384 -1.784551,0.34915 -3.569103,0.34915 z m 2.676828,-13.19016 q -0.0388,-2.05612 -1.241428,-3.25875 -1.163838,-1.20263 -2.987184,-1.20263 -1.784552,0 -3.064773,1.16384 -1.280222,1.12504 -1.474195,3.29754 z"
           id="path11072" />
        <path
           d="m 45.747791,203.52962 v -21.18186 h 4.267406 l 0.931071,2.71563 h 0.310357 q 1.93973,-3.10357 6.401109,-3.10357 3.569103,0 5.431244,2.01732 1.862141,1.97852 1.862141,5.7416 v 13.81088 h -5.625217 v -12.37548 q 0,-2.32768 -0.931071,-3.41393 -0.93107,-1.12504 -2.676827,-1.12504 -2.288882,0 -3.336336,1.86214 -1.00866,1.86214 -1.00866,5.08209 v 9.97022 z"
           id="path11074" />
      </g>
      <path
         d="m 120.94367,203.91756 q -1.90093,0 -3.76307,-0.27156 -1.82335,-0.27156 -3.68549,-0.96986 v -5.23728 q 1.66817,0.7371 3.76307,1.28023 2.09491,0.50433 4.345,0.50433 1.4742,0 2.32768,-0.34915 0.85348,-0.38795 0.85348,-1.24143 0,-1.08625 -1.28022,-1.62938 -1.28023,-0.54312 -3.76308,-1.51298 -1.74576,-0.69831 -3.14236,-1.43541 -1.35781,-0.77589 -2.1725,-1.90093 -0.77589,-1.16384 -0.77589,-2.98718 0,-2.1725 1.08625,-3.53031 1.12504,-1.39661 3.06477,-2.01732 1.93973,-0.65951 4.50017,-0.65951 2.05612,0 4.15103,0.42674 2.0949,0.38795 4.07343,1.24143 l -1.74576,4.3062 q -1.78455,-0.65951 -3.41392,-1.00866 -1.59058,-0.34915 -3.25875,-0.34915 -1.28022,0 -2.01732,0.31035 -0.6983,0.31036 -0.6983,1.08625 0,1.04746 1.20263,1.59058 1.24143,0.50433 3.45272,1.28022 1.74576,0.62072 3.21995,1.39661 1.4742,0.77589 2.36647,2.05611 0.93107,1.24143 0.93107,3.37513 0,3.25875 -2.44406,4.77174 -2.40526,1.47419 -7.177,1.47419 z"
         id="path11012"
         style="font-weight:bold;font-size:38.7946px;line-height:1.25;font-family:'Noto Sans Mono';-inkscape-font-specification:'Noto Sans Mono, Bold';stroke-width:0.969866" />
      <path
         d="m 145.30662,203.91756 q -3.18116,0 -5.43124,-1.35781 -2.25009,-1.35781 -3.45272,-3.80187 -1.20263,-2.44406 -1.20263,-5.7416 0,-3.37513 1.20263,-5.85798 1.24143,-2.48286 3.53031,-3.84067 2.28888,-1.35781 5.43124,-1.35781 4.61656,0 7.29339,2.90959 2.71562,2.8708 2.71562,8.06928 0,3.25875 -1.16384,5.7416 -1.16384,2.48286 -3.41392,3.87946 -2.2113,1.35781 -5.50884,1.35781 z m 0.0776,-4.53897 q 2.21129,0 3.25875,-1.70696 1.04745,-1.74575 1.04745,-4.73294 0,-2.90959 -1.00866,-4.65535 -1.00866,-1.78455 -3.29754,-1.78455 -2.25009,0 -3.37513,1.74575 -1.08625,1.70697 -1.08625,4.69415 0,2.94839 1.08625,4.69415 1.12504,1.74575 3.37513,1.74575 z"
         id="path11014"
         style="font-weight:bold;font-size:38.7946px;line-height:1.25;font-family:'Noto Sans Mono';-inkscape-font-specification:'Noto Sans Mono, Bold';stroke-width:0.969866" />
      <path
         d="m 166.02288,203.91756 q -3.37513,0 -5.27607,-1.97852 -1.86214,-2.01732 -1.86214,-5.7804 v -13.81088 h 5.62522 v 12.37548 q 0,2.13371 0.7371,3.33634 0.73709,1.20263 2.67682,1.20263 1.86215,0 2.83201,-0.85348 0.96987,-0.85348 1.31902,-2.40527 0.38794,-1.59057 0.38794,-3.68548 v -9.97022 h 5.62522 v 21.18186 h -4.26741 l -0.93107,-2.71562 h -0.31035 q -0.93107,1.47419 -2.67683,2.28888 -1.70696,0.81468 -3.87946,0.81468 z"
         id="path11016"
         style="font-weight:bold;font-size:38.7946px;line-height:1.25;font-family:'Noto Sans Mono';-inkscape-font-specification:'Noto Sans Mono, Bold';stroke-width:0.969866" />
      <path
         d="m 181.81222,203.52962 v -3.49152 l 5.50883,-1.16383 v -11.87115 l -4.46138,-0.65951 v -3.99585 h 8.72879 l 0.81469,3.56911 h 0.27156 q 1.00866,-1.78455 2.56044,-2.8708 1.55179,-1.08625 3.91826,-1.08625 0.65951,0 1.66816,0.11638 1.00866,0.11639 2.01732,0.54313 l -1.51299,5.23727 q -0.54312,-0.19397 -1.35781,-0.34915 -0.81468,-0.15518 -1.70696,-0.15518 -2.67683,0 -3.99584,1.74576 -1.31902,1.70696 -1.31902,4.2674 v 5.50884 l 5.54763,1.16383 v 3.49152 z"
         id="path11018"
         style="font-weight:bold;font-size:38.7946px;line-height:1.25;font-family:'Noto Sans Mono';-inkscape-font-specification:'Noto Sans Mono, Bold';stroke-width:0.969866" />
      <path
         d="m 216.64971,203.91756 q -5.35365,0 -7.91409,-2.67682 -2.52165,-2.71563 -2.52165,-8.03049 0,-5.50883 2.63803,-8.37963 2.67683,-2.8708 7.99169,-2.8708 1.59058,0 3.37513,0.31036 1.78455,0.27156 3.45272,1.00866 l -1.62938,4.46137 q -1.55178,-0.62071 -2.832,-0.81468 -1.28022,-0.19398 -2.05612,-0.19398 -5.23727,0 -5.23727,6.28473 0,3.21995 1.35781,4.69415 1.39661,1.4354 3.95705,1.4354 1.20264,0 2.63804,-0.34915 1.47419,-0.38795 3.14236,-1.39661 v 5.0433 q -1.66817,0.85348 -3.18116,1.16384 -1.51299,0.31035 -3.18116,0.31035 z"
         id="path11020"
         style="font-weight:bold;font-size:38.7946px;line-height:1.25;font-family:'Noto Sans Mono';-inkscape-font-specification:'Noto Sans Mono, Bold';stroke-width:0.969866" />
      <path
         d="m 240.39195,203.91756 q -5.58642,0 -8.65119,-2.8708 -3.02598,-2.8708 -3.02598,-8.22445 0,-3.29754 1.16384,-5.7416 1.16383,-2.44406 3.41392,-3.76308 2.25009,-1.35781 5.43124,-1.35781 4.50018,0 6.94424,2.59924 2.44406,2.59924 2.44406,7.21579 v 2.79321 h -13.92726 q 0.0776,1.55179 0.93107,2.63804 0.89227,1.04745 2.36647,1.59058 1.47419,0.50433 3.21995,0.50433 1.51299,0 3.18116,-0.34916 1.70696,-0.38794 3.60789,-1.08624 v 4.53896 q -1.70696,0.85349 -3.5303,1.16384 -1.78456,0.34915 -3.56911,0.34915 z m 2.67683,-13.19016 q -0.0388,-2.05612 -1.24143,-3.25875 -1.16384,-1.20263 -2.98718,-1.20263 -1.78455,0 -3.06478,1.16384 -1.28022,1.12504 -1.47419,3.29754 z"
         id="path11022"
         style="font-weight:bold;font-size:38.7946px;line-height:1.25;font-family:'Noto Sans Mono';-inkscape-font-specification:'Noto Sans Mono, Bold';stroke-width:0.969866" />
      <path
         id="path5453-8-9"
         style="fill:#000000;fill-opacity:1;stroke:#000000;stroke-width:1.81796;stroke-linejoin:round;stroke-miterlimit:4;stroke-dasharray:none"
         inkscape:label="Triangle"
         d="m 88.723659,168.94306 -14.83579,29.80179 h 14.83579 z m 0.99891,19.39158 v 29.80231 l 14.835781,-29.80231 z" />
    </g>
  </g>
</svg>
