<?xml version="1.0" encoding="UTF-8" standalone="no"?>
<!-- Created with Inkscape (http://www.inkscape.org/) -->

<svg
   width="300mm"
   height="51.103821mm"
   viewBox="0 0 300 51.103821"
   version="1.1"
   id="svg872"
   sodipodi:docname="everydaydev_black.svg"
   inkscape:version="1.1.2 (0a00cf5339, 2022-02-04)"
   xmlns:inkscape="http://www.inkscape.org/namespaces/inkscape"
   xmlns:sodipodi="http://sodipodi.sourceforge.net/DTD/sodipodi-0.dtd"
   xmlns="http://www.w3.org/2000/svg"
   xmlns:svg="http://www.w3.org/2000/svg">
  <sodipodi:namedview
     id="namedview874"
     pagecolor="#505050"
     bordercolor="#ffffff"
     borderopacity="1"
     inkscape:pageshadow="0"
     inkscape:pageopacity="0"
     inkscape:pagecheckerboard="1"
     inkscape:document-units="mm"
     showgrid="false"
     inkscape:zoom="0.66698232"
     inkscape:cx="478.27355"
     inkscape:cy="223.39423"
     inkscape:window-width="1720"
     inkscape:window-height="1359"
     inkscape:window-x="0"
     inkscape:window-y="44"
     inkscape:window-maximized="0"
     inkscape:current-layer="layer1" />
  <defs
     id="defs869" />
  <g
     inkscape:label="Layer 1"
     inkscape:groupmode="layer"
     id="layer1"
     transform="translate(38.276083,-100.89623)">
    <g
       aria-label="everyday"
       id="text2394-9-8-8-3"
       style="font-weight:bold;font-size:38.865px;line-height:1.25;font-family:'Noto Sans Mono';-inkscape-font-specification:'Noto Sans Mono, Bold';stroke-width:0.971626" />
    <path
       d="m -26.577718,136.84452 q -5.59656,0 -8.666895,-2.87601 -3.031471,-2.87601 -3.031471,-8.23938 0,-3.30352 1.16595,-5.75202 1.165951,-2.44849 3.420121,-3.7699 2.25417,-1.36028 5.4411,-1.36028 4.50834,0 6.956835,2.60396 2.448495,2.60395 2.448495,7.22889 v 2.79828 h -13.952535 q 0.07773,1.5546 0.93276,2.64282 0.893895,1.04935 2.370765,1.59346 1.47687,0.50525 3.225795,0.50525 1.515735,0 3.18693,-0.34979 1.71006,-0.38865 3.614445,-1.08822 v 4.54721 q -1.71006,0.85503 -3.536715,1.16595 -1.78779,0.34978 -3.57558,0.34978 z m 2.681685,-13.2141 q -0.03887,-2.05984 -1.24368,-3.26466 -1.16595,-1.20481 -2.992605,-1.20481 -1.78779,0 -3.070335,1.16595 -1.282545,1.12708 -1.47687,3.30352 z"
       id="path2583"
       style="font-weight:bold;font-size:38.865px;line-height:1.25;font-family:'Noto Sans Mono';-inkscape-font-specification:'Noto Sans Mono, Bold';fill:#000000;fill-opacity:1;stroke-width:0.971626" />
    <path
       d="m -8.2334972,136.45587 -7.8895948,-21.22029 h 6.06294 l 3.8476349,12.08702 q 0.349785,1.12708 0.6218401,2.25417 0.272055,1.08822 0.38865,2.09871 h 0.116595 q 0.116595,-1.01049 0.349785,-1.98212 0.23319,-1.01049 0.62184,-2.3319 l 3.80877018,-12.12588 H 5.6413084 l -7.9284603,21.22029 z"
       id="path2585"
       style="font-weight:bold;font-size:38.865px;line-height:1.25;font-family:'Noto Sans Mono';-inkscape-font-specification:'Noto Sans Mono, Bold';fill:#000000;fill-opacity:1;stroke-width:0.971626" />
    <path
       d="m 20.060164,136.84452 q -5.59656,0 -8.666895,-2.87601 -3.0314703,-2.87601 -3.0314703,-8.23938 0,-3.30352 1.16595,-5.75202 1.1659503,-2.44849 3.4201203,-3.7699 2.25417,-1.36028 5.4411,-1.36028 4.50834,0 6.956835,2.60396 2.448496,2.60395 2.448496,7.22889 v 2.79828 H 13.841764 q 0.07773,1.5546 0.93276,2.64282 0.893895,1.04935 2.370765,1.59346 1.47687,0.50525 3.225795,0.50525 1.515735,0 3.18693,-0.34979 1.71006,-0.38865 3.614445,-1.08822 v 4.54721 q -1.71006,0.85503 -3.536715,1.16595 -1.78779,0.34978 -3.57558,0.34978 z m 2.681685,-13.2141 q -0.03886,-2.05984 -1.24368,-3.26466 -1.16595,-1.20481 -2.992605,-1.20481 -1.78779,0 -3.070335,1.16595 -1.282545,1.12708 -1.47687,3.30352 z"
       id="path2587"
       style="font-weight:bold;font-size:38.865px;line-height:1.25;font-family:'Noto Sans Mono';-inkscape-font-specification:'Noto Sans Mono, Bold';fill:#000000;fill-opacity:1;stroke-width:0.971626" />
    <path
       d="m 31.330957,136.45587 v -3.49785 l 5.51883,-1.16595 v -11.89269 l -4.469475,-0.6607 v -4.0031 h 8.744625 l 0.816165,3.57558 h 0.272055 q 1.01049,-1.78779 2.56509,-2.87601 1.5546,-1.08822 3.925365,-1.08822 0.660705,0 1.671195,0.1166 1.010491,0.11659 2.020981,0.54411 l -1.515735,5.24677 q -0.544111,-0.19432 -1.360276,-0.34978 -0.816165,-0.15546 -1.71006,-0.15546 -2.681685,0 -4.003095,1.74892 -1.32141,1.71006 -1.32141,4.27515 v 5.51883 l 5.557695,1.16595 v 3.49785 z"
       id="path2589"
       style="font-weight:bold;font-size:38.865px;line-height:1.25;font-family:'Noto Sans Mono';-inkscape-font-specification:'Noto Sans Mono, Bold';fill:#000000;fill-opacity:1;stroke-width:0.971626" />
    <path
       d="m 58.225476,145.9778 q -0.69957,0 -1.438005,-0.0777 -0.69957,-0.0777 -1.438005,-0.23319 v -4.81926 q 0.54411,0.11659 1.08822,0.15546 0.54411,0.0777 0.93276,0.0777 1.78779,0 2.79828,-0.97163 1.049355,-0.97162 1.671195,-2.75941 l 0.349785,-1.04936 -8.355975,-21.06483 h 6.14067 l 4.080825,12.20361 q 0.272055,0.7773 0.46638,1.71006 0.23319,0.8939 0.38865,1.98212 h 0.116595 q 0.194325,-1.08822 0.38865,-1.94325 0.23319,-0.85503 0.505245,-1.74893 l 3.614446,-12.20361 h 6.06294 l -8.122786,22.34738 q -1.5546,4.31401 -3.769905,6.33499 -2.17644,2.05985 -5.479965,2.05985 z"
       id="path2591"
       style="font-weight:bold;font-size:38.865px;line-height:1.25;font-family:'Noto Sans Mono';-inkscape-font-specification:'Noto Sans Mono, Bold';fill:#000000;fill-opacity:1;stroke-width:0.971626" />
    <path
       d="m 85.819565,136.84452 q -2.759415,0 -4.50834,-1.438 -1.748925,-1.47687 -2.56509,-3.96423 -0.816165,-2.52623 -0.816165,-5.59656 0,-3.18693 0.85503,-5.63543 0.893895,-2.48736 2.72055,-3.92536 1.86552,-1.43801 4.74153,-1.43801 2.059846,0 3.497851,0.7773 1.47687,0.7773 2.526225,2.3319 h 0.194325 q -0.194325,-1.20481 -0.31092,-2.29303 -0.116595,-1.12709 -0.116595,-2.37077 v -6.37386 h 5.51883 v 29.5374 h -4.27515 l -1.16595,-2.75941 h -0.23319 q -0.971625,1.5546 -2.56509,2.37076 -1.5546,0.7773 -3.497851,0.7773 z m 2.215306,-4.6638 q 4.43061,0 4.43061,-5.63542 v -0.62184 q 0,-1.86552 -0.38865,-3.30353 -0.349785,-1.47687 -1.282545,-2.29303 -0.893895,-0.81617 -2.56509,-0.81617 -4.586071,0 -4.586071,6.56819 0,3.18693 1.08822,4.6638 1.08822,1.438 3.303526,1.438 z"
       id="path2593"
       style="font-weight:bold;font-size:38.865px;line-height:1.25;font-family:'Noto Sans Mono';-inkscape-font-specification:'Noto Sans Mono, Bold';fill:#000000;fill-opacity:1;stroke-width:0.971626" />
    <path
       d="m 108.36121,136.84452 q -3.34239,0 -5.05245,-1.74892 -1.67119,-1.78779 -1.67119,-4.7804 0,-3.57558 2.25417,-5.20791 2.29303,-1.63233 6.56818,-1.74892 l 4.6638,-0.1166 v -0.93276 q 0,-2.95374 -4.23628,-2.95374 -2.68169,0 -6.14067,1.28255 l -1.82666,-3.92537 q 3.69218,-1.86552 8.16165,-1.86552 4.50834,0 6.95684,1.86552 2.44849,1.82666 2.44849,5.59656 v 14.14686 h -4.27515 l -0.89389,-2.68168 h -0.15546 q -1.43801,1.67119 -3.14807,2.37076 -1.71006,0.69957 -3.65331,0.69957 z m 1.98212,-4.43061 q 1.98211,0 3.38125,-1.08822 1.39914,-1.08822 1.39914,-2.95374 v -1.74892 l -3.22579,0.0777 q -2.3319,0.0389 -3.57558,0.81616 -1.20482,0.73844 -1.20482,2.29304 0,1.39914 0.93276,2.02098 0.93276,0.58297 2.29304,0.58297 z"
       id="path2595"
       style="font-weight:bold;font-size:38.865px;line-height:1.25;font-family:'Noto Sans Mono';-inkscape-font-specification:'Noto Sans Mono, Bold';fill:#000000;fill-opacity:1;stroke-width:0.971626" />
    <path
       d="m 128.1823,145.9778 q -0.69957,0 -1.438,-0.0777 -0.69957,-0.0777 -1.43801,-0.23319 v -4.81926 q 0.54411,0.11659 1.08822,0.15546 0.54411,0.0777 0.93276,0.0777 1.78779,0 2.79828,-0.97163 1.04936,-0.97162 1.6712,-2.75941 l 0.34978,-1.04936 -8.35597,-21.06483 h 6.14067 l 4.08082,12.20361 q 0.27206,0.7773 0.46638,1.71006 0.23319,0.8939 0.38865,1.98212 h 0.1166 q 0.19432,-1.08822 0.38865,-1.94325 0.23319,-0.85503 0.50524,-1.74893 l 3.61445,-12.20361 h 6.06294 l -8.12279,22.34738 q -1.5546,4.31401 -3.7699,6.33499 -2.17644,2.05985 -5.47997,2.05985 z"
       id="path2597"
       style="font-weight:bold;font-size:38.865px;line-height:1.25;font-family:'Noto Sans Mono';-inkscape-font-specification:'Noto Sans Mono, Bold';fill:#000000;fill-opacity:1;stroke-width:0.971626" />
    <g
       aria-label="dev"
       id="text6768-5-1-4-3"
       style="font-weight:bold;font-size:38.865px;line-height:1.25;font-family:'Noto Sans Mono';-inkscape-font-specification:'Noto Sans Mono, Bold';fill:#000000;fill-opacity:1;stroke-width:0.971626">
      <path
         d="m 201.98854,136.84452 q -2.75942,0 -4.50834,-1.438 -1.74893,-1.47687 -2.56509,-3.96423 -0.81617,-2.52623 -0.81617,-5.59656 0,-3.18693 0.85503,-5.63543 0.8939,-2.48736 2.72055,-3.92536 1.86552,-1.43801 4.74153,-1.43801 2.05985,0 3.49785,0.7773 1.47687,0.7773 2.52623,2.3319 h 0.19432 q -0.19432,-1.20481 -0.31092,-2.29303 -0.11659,-1.12709 -0.11659,-2.37077 v -6.37386 h 5.51883 v 29.5374 h -4.27515 l -1.16595,-2.75941 h -0.23319 q -0.97163,1.5546 -2.56509,2.37076 -1.5546,0.7773 -3.49785,0.7773 z m 2.2153,-4.6638 q 4.43061,0 4.43061,-5.63542 v -0.62184 q 0,-1.86552 -0.38865,-3.30353 -0.34978,-1.47687 -1.28254,-2.29303 -0.8939,-0.81617 -2.56509,-0.81617 -4.58607,0 -4.58607,6.56819 0,3.18693 1.08822,4.6638 1.08822,1.438 3.30352,1.438 z"
         id="path2600"
         style="fill:#000000;fill-opacity:1" />
      <path
         d="m 229.5049,136.84452 q -5.59656,0 -8.6669,-2.87601 -3.03147,-2.87601 -3.03147,-8.23938 0,-3.30352 1.16595,-5.75202 1.16595,-2.44849 3.42012,-3.7699 2.25417,-1.36028 5.4411,-1.36028 4.50834,0 6.95684,2.60396 2.44849,2.60395 2.44849,7.22889 v 2.79828 H 223.2865 q 0.0777,1.5546 0.93276,2.64282 0.89389,1.04935 2.37076,1.59346 1.47687,0.50525 3.2258,0.50525 1.51573,0 3.18693,-0.34979 1.71006,-0.38865 3.61444,-1.08822 v 4.54721 q -1.71006,0.85503 -3.53671,1.16595 -1.78779,0.34978 -3.57558,0.34978 z m 2.68168,-13.2141 q -0.0389,-2.05984 -1.24368,-3.26466 -1.16595,-1.20481 -2.9926,-1.20481 -1.78779,0 -3.07034,1.16595 -1.28254,1.12708 -1.47687,3.30352 z"
         id="path2602"
         style="fill:#000000;fill-opacity:1" />
      <path
         d="m 247.84912,136.45587 -7.8896,-21.22029 h 6.06294 l 3.84764,12.08702 q 0.34978,1.12708 0.62184,2.25417 0.27205,1.08822 0.38865,2.09871 h 0.11659 q 0.1166,-1.01049 0.34979,-1.98212 0.23319,-1.01049 0.62184,-2.3319 l 3.80877,-12.12588 h 5.94635 l -7.92847,21.22029 z"
         id="path2604"
         style="fill:#000000;fill-opacity:1" />
    </g>
    <path
       id="path5453-8"
       style="fill:#000000;fill-opacity:1;stroke:#000000;stroke-width:1.82126;stroke-linejoin:round;stroke-miterlimit:4;stroke-dasharray:none"
       inkscape:label="Triangle"
       d="m 168.05704,101.80656 -14.86271,29.85587 h 14.86271 z m 1.00072,19.42677 v 29.85638 l 14.8627,-29.85638 z" />
  </g>
</svg>
